<svg width="24" height="24" viewBox="0 0 24 24" fill="none" xmlns="http://www.w3.org/2000/svg">
<path fill-rule="evenodd" clip-rule="evenodd" d="M6.58164 5.45452C6.90235 3.07109 9.28421 1.09088 11.9995 1.09088C14.7149 1.09088 17.0967 3.07109 17.4174 5.45452H20.5599C21.7649 5.45452 22.7417 6.43135 22.7417 7.63634C22.7417 7.73958 22.7344 7.84269 22.7198 7.94489L20.8496 21.0358C20.6961 22.1107 19.7755 22.9091 18.6898 22.9091H5.30931C4.22352 22.9091 3.30297 22.1107 3.14942 21.0358L1.27929 7.94489C1.10888 6.75202 1.93775 5.64686 3.13062 5.47645C3.23282 5.46185 3.33593 5.45452 3.43918 5.45452H6.58164ZM15.1934 5.45449C14.8618 4.29603 13.5245 3.27267 11.9994 3.27267C10.4742 3.27267 9.13695 4.29603 8.80532 5.45449H15.1934ZM3.43906 7.63634H6.54487V9.81816H8.72669V7.63634H15.2721V9.81816H17.454V7.63634H20.5598L18.6896 20.7273H5.30919L3.43906 7.63634Z" fill="#1A1A1A"/>
</svg>
