<svg width="29" height="28" viewBox="0 0 29 28" fill="none" xmlns="http://www.w3.org/2000/svg">
<path d="M3.75 7.33333C3.75 6.59695 4.36561 6 5.125 6H24.375C25.1344 6 25.75 6.59695 25.75 7.33333C25.75 8.06971 25.1344 8.66667 24.375 8.66667H5.125C4.36561 8.66667 3.75 8.06971 3.75 7.33333ZM3.75 14C3.75 13.2636 4.36561 12.6667 5.125 12.6667H24.375C25.1344 12.6667 25.75 13.2636 25.75 14C25.75 14.7364 25.1344 15.3333 24.375 15.3333H5.125C4.36561 15.3333 3.75 14.7364 3.75 14ZM3.75 20.6667C3.75 19.9303 4.36561 19.3333 5.125 19.3333H24.375C25.1344 19.3333 25.75 19.9303 25.75 20.6667C25.75 21.403 25.1344 22 24.375 22H5.125C4.36561 22 3.75 21.403 3.75 20.6667Z" fill="#0D0D0D"/>
</svg>
