<svg width="28" height="28" viewBox="0 0 28 28" fill="none" xmlns="http://www.w3.org/2000/svg">
<path d="M11.6666 4.66665C7.80059 4.66665 4.66659 7.80065 4.66659 11.6666C4.66659 15.5326 7.80059 18.6666 11.6666 18.6666C15.5326 18.6666 18.6666 15.5326 18.6666 11.6666C18.6666 7.80065 15.5326 4.66665 11.6666 4.66665ZM2.33325 11.6666C2.33325 6.51199 6.51193 2.33331 11.6666 2.33331C16.8212 2.33331 20.9999 6.51199 20.9999 11.6666C20.9999 13.8235 20.2683 15.8094 19.0398 17.3899L25.3249 23.675C25.7805 24.1306 25.7805 24.8693 25.3249 25.3249C24.8693 25.7806 24.1306 25.7806 23.675 25.3249L17.3898 19.0398C15.8094 20.2684 13.8234 21 11.6666 21C6.51193 21 2.33325 16.8213 2.33325 11.6666Z" fill="#171314"/>
</svg>
