<svg width="28" height="28" viewBox="0 0 28 28" fill="none" xmlns="http://www.w3.org/2000/svg">
<path d="M14 4.66665C11.4227 4.66665 9.33333 6.75598 9.33333 9.33331C9.33333 11.9106 11.4227 14 14 14C16.5773 14 18.6667 11.9106 18.6667 9.33331C18.6667 6.75598 16.5773 4.66665 14 4.66665ZM7 9.33331C7 5.46732 10.134 2.33331 14 2.33331C17.866 2.33331 21 5.46732 21 9.33331C21 13.1993 17.866 16.3333 14 16.3333C10.134 16.3333 7 13.1993 7 9.33331ZM9.33333 21C7.40034 21 5.83333 22.567 5.83333 24.5C5.83333 25.1443 5.311 25.6666 4.66667 25.6666C4.02233 25.6666 3.5 25.1443 3.5 24.5C3.5 21.2783 6.11167 18.6666 9.33333 18.6666H18.6667C21.8883 18.6666 24.5 21.2783 24.5 24.5C24.5 25.1443 23.9777 25.6666 23.3333 25.6666C22.689 25.6666 22.1667 25.1443 22.1667 24.5C22.1667 22.567 20.5997 21 18.6667 21H9.33333Z" fill="#171314"/>
</svg>
